<svg width="2062" height="1225" viewBox="0 0 2062 1225" fill="none" xmlns="http://www.w3.org/2000/svg">
<g opacity="0.2" clip-path="url(#clip0_2534_326)">
<path d="M142.097 941.002C63.5443 941.002 0 1004.55 0 1083.1C0 1161.46 63.5443 1225.2 142.097 1225.2C220.456 1225.2 284.195 1161.65 284.195 1083.1C284 1004.55 220.456 941.002 142.097 941.002ZM142.097 1216.04C68.6122 1216.04 9.16129 1156.58 9.16129 1083.1C9.16129 1009.61 68.6122 950.163 142.097 950.163C215.583 950.163 275.034 1009.61 275.034 1083.1C275.034 1156.39 215.388 1216.04 142.097 1216.04Z" fill="white"/>
<path d="M142.099 971.604C80.6986 971.604 30.7988 1021.5 30.7988 1082.9C30.7988 1144.3 80.6986 1194.2 142.099 1194.2C203.499 1194.2 253.399 1144.5 253.399 1083.1C253.399 1021.5 203.499 971.604 142.099 971.604ZM142.099 1177.25C90.0548 1177.25 47.757 1134.95 47.757 1082.9C47.757 1030.86 90.0548 988.563 142.099 988.563C194.143 988.563 236.441 1030.86 236.441 1082.9C236.441 1134.95 194.143 1177.25 142.099 1177.25Z" fill="white"/>
<path d="M142.098 1020.53C107.597 1020.53 79.5283 1048.6 79.5283 1083.1C79.5283 1117.6 107.402 1145.67 142.098 1145.67C176.599 1145.67 204.668 1117.6 204.668 1083.1C204.473 1048.6 176.599 1020.53 142.098 1020.53ZM142.098 1116.63C123.58 1116.63 108.572 1101.62 108.572 1083.1C108.572 1064.58 123.58 1049.57 142.098 1049.57C160.616 1049.57 175.624 1064.58 175.624 1083.1C175.624 1101.62 160.616 1116.63 142.098 1116.63Z" fill="white"/>
</g>
<g opacity="0.8" clip-path="url(#clip1_2534_326)">
<path d="M1880.34 834.266C1880.34 835.786 1879.19 836.925 1877.67 836.925C1876.14 836.925 1875 835.786 1875 834.266C1875 832.747 1876.14 831.607 1877.67 831.607C1879.19 831.607 1880.34 832.874 1880.34 834.266Z" fill="white"/>
<path d="M1903.08 834.266C1903.08 835.786 1901.93 836.925 1900.41 836.925C1898.88 836.925 1897.74 835.786 1897.74 834.266C1897.74 832.747 1898.88 831.607 1900.41 831.607C1901.8 831.607 1903.08 832.874 1903.08 834.266Z" fill="white"/>
<path d="M1925.69 834.266C1925.69 835.786 1924.54 836.925 1923.02 836.925C1921.5 836.925 1920.35 835.786 1920.35 834.266C1920.35 832.747 1921.5 831.607 1923.02 831.607C1924.54 831.607 1925.69 832.874 1925.69 834.266Z" fill="white"/>
<path d="M1948.43 834.266C1948.43 835.786 1947.28 836.925 1945.76 836.925C1944.24 836.925 1943.09 835.786 1943.09 834.266C1943.09 832.747 1944.24 831.607 1945.76 831.607C1947.28 831.607 1948.43 832.874 1948.43 834.266Z" fill="white"/>
<path d="M1971.17 834.266C1971.17 835.786 1970.02 836.925 1968.5 836.925C1966.98 836.925 1965.83 835.786 1965.83 834.266C1965.83 832.747 1966.98 831.607 1968.5 831.607C1969.9 831.607 1971.17 832.874 1971.17 834.266Z" fill="white"/>
<path d="M1993.91 834.266C1993.91 835.786 1992.76 836.925 1991.24 836.925C1989.72 836.925 1988.57 835.786 1988.57 834.266C1988.57 832.747 1989.72 831.607 1991.24 831.607C1992.76 831.607 1993.91 832.874 1993.91 834.266Z" fill="white"/>
<path d="M2016.52 834.266C2016.52 835.786 2015.38 836.925 2013.85 836.925C2012.33 836.925 2011.18 835.786 2011.18 834.266C2011.18 832.747 2012.33 831.607 2013.85 831.607C2015.38 831.607 2016.52 832.874 2016.52 834.266Z" fill="white"/>
<path d="M2039.26 834.266C2039.26 835.786 2038.12 836.925 2036.59 836.925C2035.07 836.925 2033.92 835.786 2033.92 834.266C2033.92 832.747 2035.07 831.607 2036.59 831.607C2038.12 831.607 2039.26 832.874 2039.26 834.266Z" fill="white"/>
<path d="M2062 834.266C2062 835.786 2060.86 836.925 2059.33 836.925C2057.81 836.925 2056.66 835.786 2056.66 834.266C2056.66 832.747 2057.81 831.607 2059.33 831.607C2060.73 831.607 2062 832.874 2062 834.266Z" fill="white"/>
<path d="M1880.34 853.133C1880.34 854.652 1879.19 855.792 1877.67 855.792C1876.14 855.792 1875 854.652 1875 853.133C1875 851.613 1876.14 850.474 1877.67 850.474C1879.19 850.474 1880.34 851.613 1880.34 853.133Z" fill="white"/>
<path d="M1903.08 853.133C1903.08 854.652 1901.93 855.792 1900.41 855.792C1898.88 855.792 1897.74 854.652 1897.74 853.133C1897.74 851.613 1898.88 850.474 1900.41 850.474C1901.8 850.474 1903.08 851.613 1903.08 853.133Z" fill="white"/>
<path d="M1925.69 853.133C1925.69 854.652 1924.54 855.792 1923.02 855.792C1921.5 855.792 1920.35 854.652 1920.35 853.133C1920.35 851.613 1921.5 850.474 1923.02 850.474C1924.54 850.474 1925.69 851.613 1925.69 853.133Z" fill="white"/>
<path d="M1948.43 853.133C1948.43 854.652 1947.28 855.792 1945.76 855.792C1944.24 855.792 1943.09 854.652 1943.09 853.133C1943.09 851.613 1944.24 850.474 1945.76 850.474C1947.28 850.474 1948.43 851.613 1948.43 853.133Z" fill="white"/>
<path d="M1971.17 853.133C1971.17 854.652 1970.02 855.792 1968.5 855.792C1966.98 855.792 1965.83 854.652 1965.83 853.133C1965.83 851.613 1966.98 850.474 1968.5 850.474C1969.9 850.474 1971.17 851.613 1971.17 853.133Z" fill="white"/>
<path d="M1993.91 853.133C1993.91 854.652 1992.76 855.792 1991.24 855.792C1989.72 855.792 1988.57 854.652 1988.57 853.133C1988.57 851.613 1989.72 850.474 1991.24 850.474C1992.76 850.474 1993.91 851.613 1993.91 853.133Z" fill="white"/>
<path d="M2016.52 853.133C2016.52 854.652 2015.38 855.792 2013.85 855.792C2012.33 855.792 2011.18 854.652 2011.18 853.133C2011.18 851.613 2012.33 850.474 2013.85 850.474C2015.38 850.474 2016.52 851.613 2016.52 853.133Z" fill="white"/>
<path d="M2039.26 853.133C2039.26 854.652 2038.12 855.792 2036.59 855.792C2035.07 855.792 2033.92 854.652 2033.92 853.133C2033.92 851.613 2035.07 850.474 2036.59 850.474C2038.12 850.474 2039.26 851.613 2039.26 853.133Z" fill="white"/>
<path d="M2062 853.133C2062 854.652 2060.86 855.792 2059.33 855.792C2057.81 855.792 2056.66 854.652 2056.66 853.133C2056.66 851.613 2057.81 850.474 2059.33 850.474C2060.73 850.474 2062 851.613 2062 853.133Z" fill="white"/>
<path d="M1880.34 796.661C1880.34 798.18 1879.19 799.32 1877.67 799.32C1876.14 799.32 1875 798.18 1875 796.661C1875 795.142 1876.14 794.002 1877.67 794.002C1879.19 794.002 1880.34 795.142 1880.34 796.661Z" fill="white"/>
<path d="M1903.08 796.661C1903.08 798.18 1901.93 799.32 1900.41 799.32C1898.88 799.32 1897.74 798.18 1897.74 796.661C1897.74 795.142 1898.88 794.002 1900.41 794.002C1901.8 794.002 1903.08 795.142 1903.08 796.661Z" fill="white"/>
<path d="M1925.69 796.661C1925.69 798.18 1924.54 799.32 1923.02 799.32C1921.5 799.32 1920.35 798.18 1920.35 796.661C1920.35 795.142 1921.62 794.002 1923.02 794.002C1924.54 794.002 1925.69 795.142 1925.69 796.661Z" fill="white"/>
<path d="M1948.43 796.661C1948.43 798.18 1947.28 799.32 1945.76 799.32C1944.24 799.32 1943.09 798.18 1943.09 796.661C1943.09 795.142 1944.36 794.002 1945.76 794.002C1947.16 794.002 1948.43 795.142 1948.43 796.661Z" fill="white"/>
<path d="M1971.17 796.661C1971.17 798.18 1970.02 799.32 1968.5 799.32C1966.98 799.32 1965.83 798.18 1965.83 796.661C1965.83 795.142 1966.98 794.002 1968.5 794.002C1969.9 794.002 1971.17 795.142 1971.17 796.661Z" fill="white"/>
<path d="M1993.91 796.661C1993.91 798.18 1992.76 799.32 1991.24 799.32C1989.72 799.32 1988.57 798.18 1988.57 796.661C1988.57 795.142 1989.72 794.002 1991.24 794.002C1992.76 794.002 1993.91 795.142 1993.91 796.661Z" fill="white"/>
<path d="M2016.52 796.661C2016.52 798.18 2015.38 799.32 2013.85 799.32C2012.33 799.32 2011.18 798.18 2011.18 796.661C2011.18 795.142 2012.33 794.002 2013.85 794.002C2015.38 794.002 2016.52 795.142 2016.52 796.661Z" fill="white"/>
<path d="M2039.26 796.661C2039.26 798.18 2038.12 799.32 2036.59 799.32C2035.07 799.32 2033.92 798.18 2033.92 796.661C2033.92 795.142 2035.07 794.002 2036.59 794.002C2038.12 794.002 2039.26 795.142 2039.26 796.661Z" fill="white"/>
<path d="M2062 796.661C2062 798.18 2060.86 799.32 2059.33 799.32C2057.81 799.32 2056.66 798.18 2056.66 796.661C2056.66 795.142 2057.81 794.002 2059.33 794.002C2060.73 794.002 2062 795.142 2062 796.661Z" fill="white"/>
<path d="M1880.34 815.527C1880.34 817.047 1879.19 818.186 1877.67 818.186C1876.14 818.186 1875 816.92 1875 815.527C1875 814.008 1876.14 812.868 1877.67 812.868C1879.19 812.868 1880.34 814.008 1880.34 815.527Z" fill="white"/>
<path d="M1903.08 815.527C1903.08 817.047 1901.93 818.186 1900.41 818.186C1898.88 818.186 1897.74 817.047 1897.74 815.527C1897.74 814.008 1898.88 812.868 1900.41 812.868C1901.8 812.868 1903.08 814.008 1903.08 815.527Z" fill="white"/>
<path d="M1925.69 815.527C1925.69 817.047 1924.54 818.186 1923.02 818.186C1921.5 818.186 1920.35 817.047 1920.35 815.527C1920.35 814.008 1921.5 812.868 1923.02 812.868C1924.54 812.868 1925.69 814.008 1925.69 815.527Z" fill="white"/>
<path d="M1948.43 815.527C1948.43 817.047 1947.28 818.186 1945.76 818.186C1944.24 818.186 1943.09 817.047 1943.09 815.527C1943.09 814.008 1944.24 812.868 1945.76 812.868C1947.28 812.868 1948.43 814.008 1948.43 815.527Z" fill="white"/>
<path d="M1971.17 815.527C1971.17 817.047 1970.02 818.186 1968.5 818.186C1966.98 818.186 1965.83 817.047 1965.83 815.527C1965.83 814.008 1966.98 812.868 1968.5 812.868C1969.9 812.868 1971.17 814.008 1971.17 815.527Z" fill="white"/>
<path d="M1993.91 815.527C1993.91 817.047 1992.76 818.186 1991.24 818.186C1989.72 818.186 1988.57 817.047 1988.57 815.527C1988.57 814.008 1989.72 812.868 1991.24 812.868C1992.76 812.868 1993.91 814.008 1993.91 815.527Z" fill="white"/>
<path d="M2016.52 815.527C2016.52 817.047 2015.38 818.186 2013.85 818.186C2012.33 818.186 2011.18 817.047 2011.18 815.527C2011.18 814.008 2012.33 812.868 2013.85 812.868C2015.38 812.868 2016.52 814.008 2016.52 815.527Z" fill="white"/>
<path d="M2039.26 815.527C2039.26 817.047 2038.12 818.186 2036.59 818.186C2035.07 818.186 2033.92 817.047 2033.92 815.527C2033.92 814.008 2035.07 812.868 2036.59 812.868C2038.12 812.868 2039.26 814.008 2039.26 815.527Z" fill="white"/>
<path d="M2062 815.527C2062 817.047 2060.86 818.186 2059.33 818.186C2057.81 818.186 2056.66 817.047 2056.66 815.527C2056.66 814.008 2057.81 812.868 2059.33 812.868C2060.73 812.868 2062 814.008 2062 815.527Z" fill="white"/>
<path d="M1880.34 871.872C1880.34 873.391 1879.19 874.531 1877.67 874.531C1876.14 874.531 1875 873.391 1875 871.872C1875 870.352 1876.14 869.213 1877.67 869.213C1879.19 869.213 1880.34 870.479 1880.34 871.872Z" fill="white"/>
<path d="M1903.08 871.872C1903.08 873.391 1901.93 874.531 1900.41 874.531C1898.88 874.531 1897.74 873.391 1897.74 871.872C1897.74 870.352 1898.88 869.213 1900.41 869.213C1901.8 869.213 1903.08 870.479 1903.08 871.872Z" fill="white"/>
<path d="M1925.69 871.872C1925.69 873.391 1924.54 874.531 1923.02 874.531C1921.5 874.531 1920.35 873.391 1920.35 871.872C1920.35 870.352 1921.5 869.213 1923.02 869.213C1924.54 869.213 1925.69 870.479 1925.69 871.872Z" fill="white"/>
<path d="M1948.43 871.872C1948.43 873.391 1947.28 874.531 1945.76 874.531C1944.24 874.531 1943.09 873.391 1943.09 871.872C1943.09 870.352 1944.24 869.213 1945.76 869.213C1947.28 869.213 1948.43 870.479 1948.43 871.872Z" fill="white"/>
<path d="M1971.17 871.872C1971.17 873.391 1970.02 874.531 1968.5 874.531C1966.98 874.531 1965.83 873.391 1965.83 871.872C1965.83 870.352 1966.98 869.213 1968.5 869.213C1969.9 869.213 1971.17 870.479 1971.17 871.872Z" fill="white"/>
<path d="M1993.91 871.872C1993.91 873.391 1992.76 874.531 1991.24 874.531C1989.72 874.531 1988.57 873.391 1988.57 871.872C1988.57 870.352 1989.72 869.213 1991.24 869.213C1992.76 869.213 1993.91 870.479 1993.91 871.872Z" fill="white"/>
<path d="M2016.52 871.872C2016.52 873.391 2015.38 874.531 2013.85 874.531C2012.33 874.531 2011.18 873.391 2011.18 871.872C2011.18 870.352 2012.33 869.213 2013.85 869.213C2015.38 869.213 2016.52 870.479 2016.52 871.872Z" fill="white"/>
<path d="M2039.26 871.872C2039.26 873.391 2038.12 874.531 2036.59 874.531C2035.07 874.531 2033.92 873.391 2033.92 871.872C2033.92 870.352 2035.07 869.213 2036.59 869.213C2038.12 869.213 2039.26 870.479 2039.26 871.872Z" fill="white"/>
<path d="M2062 871.872C2062 873.391 2060.86 874.531 2059.33 874.531C2057.81 874.531 2056.66 873.391 2056.66 871.872C2056.66 870.352 2057.81 869.213 2059.33 869.213C2060.73 869.213 2062 870.479 2062 871.872Z" fill="white"/>
<path d="M1880.34 890.738C1880.34 892.257 1879.19 893.397 1877.67 893.397C1876.14 893.397 1875 892.257 1875 890.738C1875 889.219 1876.14 888.079 1877.67 888.079C1879.19 888.079 1880.34 889.219 1880.34 890.738Z" fill="white"/>
<path d="M1903.08 890.738C1903.08 892.257 1901.93 893.397 1900.41 893.397C1898.88 893.397 1897.74 892.257 1897.74 890.738C1897.74 889.219 1898.88 888.079 1900.41 888.079C1901.8 888.079 1903.08 889.219 1903.08 890.738Z" fill="white"/>
<path d="M1925.69 890.738C1925.69 892.257 1924.54 893.397 1923.02 893.397C1921.5 893.397 1920.35 892.257 1920.35 890.738C1920.35 889.219 1921.5 888.079 1923.02 888.079C1924.54 888.079 1925.69 889.219 1925.69 890.738Z" fill="white"/>
<path d="M1945.76 893.397C1947.23 893.397 1948.43 892.207 1948.43 890.738C1948.43 889.27 1947.23 888.079 1945.76 888.079C1944.29 888.079 1943.09 889.27 1943.09 890.738C1943.09 892.207 1944.29 893.397 1945.76 893.397Z" fill="white"/>
<path d="M1971.17 890.738C1971.17 892.257 1970.02 893.397 1968.5 893.397C1966.98 893.397 1965.83 892.257 1965.83 890.738C1965.83 889.219 1966.98 888.079 1968.5 888.079C1969.9 888.079 1971.17 889.219 1971.17 890.738Z" fill="white"/>
<path d="M1993.91 890.738C1993.91 892.257 1992.76 893.397 1991.24 893.397C1989.72 893.397 1988.57 892.257 1988.57 890.738C1988.57 889.219 1989.72 888.079 1991.24 888.079C1992.76 888.079 1993.91 889.219 1993.91 890.738Z" fill="white"/>
<path d="M2016.52 890.738C2016.52 892.257 2015.38 893.397 2013.85 893.397C2012.33 893.397 2011.18 892.257 2011.18 890.738C2011.18 889.219 2012.33 888.079 2013.85 888.079C2015.38 888.079 2016.52 889.219 2016.52 890.738Z" fill="white"/>
<path d="M2036.59 893.397C2038.07 893.397 2039.26 892.207 2039.26 890.738C2039.26 889.27 2038.07 888.079 2036.59 888.079C2035.12 888.079 2033.92 889.27 2033.92 890.738C2033.92 892.207 2035.12 893.397 2036.59 893.397Z" fill="white"/>
<path d="M2062 890.738C2062 892.257 2060.86 893.397 2059.33 893.397C2057.81 893.397 2056.66 892.257 2056.66 890.738C2056.66 889.219 2057.81 888.079 2059.33 888.079C2060.73 888.079 2062 889.219 2062 890.738Z" fill="white"/>
<path d="M1880.34 909.603C1880.34 911.123 1879.19 912.262 1877.67 912.262C1876.14 912.262 1875 911.123 1875 909.603C1875 908.084 1876.14 906.944 1877.67 906.944C1879.19 906.944 1880.34 908.084 1880.34 909.603Z" fill="white"/>
<path d="M1903.08 909.603C1903.08 911.123 1901.93 912.262 1900.41 912.262C1898.88 912.262 1897.74 911.123 1897.74 909.603C1897.74 908.084 1898.88 906.944 1900.41 906.944C1901.8 906.944 1903.08 908.084 1903.08 909.603Z" fill="white"/>
<path d="M1925.69 909.603C1925.69 911.123 1924.54 912.262 1923.02 912.262C1921.5 912.262 1920.35 911.123 1920.35 909.603C1920.35 908.084 1921.5 906.944 1923.02 906.944C1924.54 906.944 1925.69 908.084 1925.69 909.603Z" fill="white"/>
<path d="M1948.43 909.603C1948.43 911.123 1947.28 912.262 1945.76 912.262C1944.24 912.262 1943.09 911.123 1943.09 909.603C1943.09 908.084 1944.24 906.944 1945.76 906.944C1947.28 906.944 1948.43 908.084 1948.43 909.603Z" fill="white"/>
<path d="M1971.17 909.603C1971.17 911.123 1970.02 912.262 1968.5 912.262C1966.98 912.262 1965.83 911.123 1965.83 909.603C1965.83 908.084 1966.98 906.944 1968.5 906.944C1969.9 906.944 1971.17 908.084 1971.17 909.603Z" fill="white"/>
<path d="M1993.91 909.603C1993.91 911.123 1992.76 912.262 1991.24 912.262C1989.72 912.262 1988.57 911.123 1988.57 909.603C1988.57 908.084 1989.72 906.944 1991.24 906.944C1992.76 906.944 1993.91 908.084 1993.91 909.603Z" fill="white"/>
<path d="M2016.52 909.603C2016.52 911.123 2015.38 912.262 2013.85 912.262C2012.33 912.262 2011.18 911.123 2011.18 909.603C2011.18 908.084 2012.33 906.944 2013.85 906.944C2015.38 906.944 2016.52 908.084 2016.52 909.603Z" fill="white"/>
<path d="M2039.26 909.603C2039.26 911.123 2038.12 912.262 2036.59 912.262C2035.07 912.262 2033.92 911.123 2033.92 909.603C2033.92 908.084 2035.07 906.944 2036.59 906.944C2038.12 906.944 2039.26 908.084 2039.26 909.603Z" fill="white"/>
<path d="M2062 909.603C2062 911.123 2060.86 912.262 2059.33 912.262C2057.81 912.262 2056.66 911.123 2056.66 909.603C2056.66 908.084 2057.81 906.944 2059.33 906.944C2060.73 906.944 2062 908.084 2062 909.603Z" fill="white"/>
<path d="M1880.34 928.343C1880.34 929.862 1879.19 931.002 1877.67 931.002C1876.14 931.002 1875 929.862 1875 928.343C1875 926.823 1876.14 925.684 1877.67 925.684C1879.19 925.684 1880.34 926.95 1880.34 928.343Z" fill="white"/>
<path d="M1903.08 928.343C1903.08 929.862 1901.93 931.002 1900.41 931.002C1898.88 931.002 1897.74 929.862 1897.74 928.343C1897.74 926.823 1898.88 925.684 1900.41 925.684C1901.8 925.684 1903.08 926.95 1903.08 928.343Z" fill="white"/>
<path d="M1925.69 928.343C1925.69 929.862 1924.54 931.002 1923.02 931.002C1921.5 931.002 1920.35 929.862 1920.35 928.343C1920.35 926.823 1921.5 925.684 1923.02 925.684C1924.54 925.684 1925.69 926.95 1925.69 928.343Z" fill="white"/>
<path d="M1948.43 928.343C1948.43 929.862 1947.28 931.002 1945.76 931.002C1944.24 931.002 1943.09 929.862 1943.09 928.343C1943.09 926.823 1944.24 925.684 1945.76 925.684C1947.28 925.684 1948.43 926.95 1948.43 928.343Z" fill="white"/>
<path d="M1971.17 928.343C1971.17 929.862 1970.02 931.002 1968.5 931.002C1966.98 931.002 1965.83 929.862 1965.83 928.343C1965.83 926.823 1966.98 925.684 1968.5 925.684C1969.9 925.684 1971.17 926.95 1971.17 928.343Z" fill="white"/>
<path d="M1993.91 928.343C1993.91 929.862 1992.76 931.002 1991.24 931.002C1989.72 931.002 1988.57 929.862 1988.57 928.343C1988.57 926.823 1989.72 925.684 1991.24 925.684C1992.76 925.684 1993.91 926.95 1993.91 928.343Z" fill="white"/>
<path d="M2016.52 928.343C2016.52 929.862 2015.38 931.002 2013.85 931.002C2012.33 931.002 2011.18 929.862 2011.18 928.343C2011.18 926.823 2012.33 925.684 2013.85 925.684C2015.38 925.684 2016.52 926.95 2016.52 928.343Z" fill="white"/>
<path d="M2039.26 928.343C2039.26 929.862 2038.12 931.002 2036.59 931.002C2035.07 931.002 2033.92 929.862 2033.92 928.343C2033.92 926.823 2035.07 925.684 2036.59 925.684C2038.12 925.684 2039.26 926.95 2039.26 928.343Z" fill="white"/>
<path d="M2062 928.343C2062 929.862 2060.86 931.002 2059.33 931.002C2057.81 931.002 2056.66 929.862 2056.66 928.343C2056.66 926.823 2057.81 925.684 2059.33 925.684C2060.73 925.684 2062 926.95 2062 928.343Z" fill="white"/>
</g>
<g opacity="0.3">
<path d="M1873.81 120.221L1883.47 129.88L1857.78 155.563L1832.1 129.88L1841.68 120.294L1857.71 136.319L1873.81 120.221Z" fill="white"/>
<path d="M1873.81 85.5386L1883.39 95.1241L1857.71 120.807L1832.1 95.1973L1841.76 85.5386L1857.78 101.563L1873.81 85.5386Z" fill="white"/>
<path d="M1873.73 50.7816L1883.39 60.4404L1857.78 86.0506L1832.1 60.3672L1841.68 50.7816L1857.71 66.8063L1873.73 50.7816Z" fill="white"/>
<path d="M1873.81 16.0249L1883.47 25.6836L1857.78 51.367L1832.1 25.6836L1841.76 16.0249L1857.78 32.0496L1873.81 16.0249Z" fill="white"/>
</g>
<path opacity="0.3" d="M906 853.555C892.071 867.484 869.377 867.484 855.447 853.555C841.518 839.625 841.518 816.931 855.447 803.002L906 853.555Z" fill="white"/>
<g opacity="0.3">
<path d="M960.486 574.892C971.205 574.892 979.937 566.167 979.937 555.455C979.937 544.744 971.205 536.019 960.486 536.019L960.486 574.892Z" fill="white"/>
<path d="M930.141 574.892C940.861 574.892 949.592 566.167 949.592 555.455C949.592 544.744 940.861 536.019 930.141 536.019L930.141 574.892Z" fill="white"/>
<path d="M899.797 574.892C910.516 574.892 919.248 566.167 919.248 555.455C919.248 544.744 910.516 536.019 899.797 536.019L899.797 574.892Z" fill="white"/>
</g>
<g opacity="0.3">
<path d="M258.301 189.921L258.301 178L290 178L290 209.699L278.169 209.699L278.169 189.921L258.301 189.921Z" fill="white"/>
<path d="M236.899 211.325L236.899 199.494L268.598 199.494L268.598 231.103L256.677 231.103L256.677 211.325L236.899 211.325Z" fill="white"/>
<path d="M215.495 232.819L215.495 220.898L247.104 220.898L247.104 252.597L235.273 252.597L235.273 232.819L215.495 232.819Z" fill="white"/>
<path d="M194.001 254.222L194.001 242.301L225.7 242.301L225.7 274L213.779 274L213.779 254.222L194.001 254.222Z" fill="white"/>
</g>
<defs>
<clipPath id="clip0_2534_326">
<rect width="284" height="284" fill="white" transform="translate(0 941.002)"/>
</clipPath>
<clipPath id="clip1_2534_326">
<rect width="187" height="137" fill="white" transform="translate(1875 794.002)"/>
</clipPath>
</defs>
</svg>
