<svg width="16" height="16" viewBox="0 0 16 16" fill="none" xmlns="http://www.w3.org/2000/svg">
<g filter="url(#filter0_d_2505_180)">
<path fill-rule="evenodd" clip-rule="evenodd" d="M5.00016 0C5.36835 0 5.66683 0.298477 5.66683 0.666667V1.00001L10.3335 1.00002V0.666667C10.3335 0.298477 10.632 1.58946e-07 11.0002 0C11.3684 -1.58946e-07 11.6668 0.298477 11.6668 0.666667V1.00002L12.5002 1.00002C13.9729 1.00002 15.1668 2.19393 15.1668 3.66669V11.6667C15.1668 13.1394 13.9729 14.3333 12.5002 14.3333L3.50016 14.3333C2.0274 14.3333 0.833496 13.1394 0.833496 11.6667L0.833496 5.1668L0.833496 3.66667C0.833496 2.19391 2.02741 1 3.50017 1L4.3335 1.00001V0.666667C4.3335 0.298477 4.63197 0 5.00016 0ZM4.3335 2.33334L3.50017 2.33334C2.76378 2.33334 2.16683 2.93029 2.16683 3.66667V4.5H13.8335V3.66669C13.8335 2.93031 13.2365 2.33336 12.5002 2.33335L11.6668 2.33335V2.66667C11.6668 3.03486 11.3684 3.33333 11.0002 3.33333C10.632 3.33333 10.3335 3.03486 10.3335 2.66667V2.33335L5.66683 2.33334V2.66667C5.66683 3.03486 5.36835 3.33333 5.00016 3.33333C4.63197 3.33333 4.3335 3.03486 4.3335 2.66667V2.33334ZM13.8335 5.83333H2.16683L2.16683 11.6667C2.16683 12.403 2.76378 13 3.50016 13L12.5002 13C13.2365 13 13.8335 12.403 13.8335 11.6667V5.83333Z" fill="#787A80"/>
</g>
<defs>
<filter id="filter0_d_2505_180" x="-3.1665" y="0" width="22.3335" height="22.334" filterUnits="userSpaceOnUse" color-interpolation-filters="sRGB">
<feFlood flood-opacity="0" result="BackgroundImageFix"/>
<feColorMatrix in="SourceAlpha" type="matrix" values="0 0 0 0 0 0 0 0 0 0 0 0 0 0 0 0 0 0 127 0" result="hardAlpha"/>
<feOffset dy="4"/>
<feGaussianBlur stdDeviation="2"/>
<feComposite in2="hardAlpha" operator="out"/>
<feColorMatrix type="matrix" values="0 0 0 0 0 0 0 0 0 0 0 0 0 0 0 0 0 0 0.25 0"/>
<feBlend mode="normal" in2="BackgroundImageFix" result="effect1_dropShadow_2505_180"/>
<feBlend mode="normal" in="SourceGraphic" in2="effect1_dropShadow_2505_180" result="shape"/>
</filter>
</defs>
</svg>
