<svg width="16" height="16" viewBox="0 0 16 16" fill="none" xmlns="http://www.w3.org/2000/svg">
<g filter="url(#filter0_d_2505_193)">
<path fill-rule="evenodd" clip-rule="evenodd" d="M4.13333 3.86667C4.13333 1.73117 5.8645 0 8 0C10.1355 0 11.8667 1.73117 11.8667 3.86667V7.06666C11.8667 9.20217 10.1355 10.9333 8 10.9333C5.8645 10.9333 4.13333 9.20217 4.13333 7.06667V3.86667ZM8 1.33333C6.60088 1.33333 5.46667 2.46755 5.46667 3.86667V7.06667C5.46667 8.46579 6.60088 9.6 8 9.6C9.39912 9.6 10.5333 8.46579 10.5333 7.06666V3.86667C10.5333 2.46755 9.39912 1.33333 8 1.33333Z" fill="#424551"/>
<path fill-rule="evenodd" clip-rule="evenodd" d="M2.66667 5.33333C3.03486 5.33333 3.33333 5.63181 3.33333 6V7.06667C3.33333 9.644 5.42267 11.7333 8 11.7333C10.5773 11.7333 12.6667 9.644 12.6667 7.06667V6C12.6667 5.63181 12.9651 5.33333 13.3333 5.33333C13.7015 5.33333 14 5.63181 14 6V7.06667C14 10.3804 11.3137 13.0667 8 13.0667C4.68629 13.0667 2 10.3804 2 7.06667V6C2 5.63181 2.29848 5.33333 2.66667 5.33333Z" fill="#424551"/>
<path fill-rule="evenodd" clip-rule="evenodd" d="M8 12.2667C8.36819 12.2667 8.66667 12.5651 8.66667 12.9333V13.8667H10.1333C10.5015 13.8667 10.8 14.1651 10.8 14.5333C10.8 14.9015 10.5015 15.2 10.1333 15.2H5.86667C5.49848 15.2 5.2 14.9015 5.2 14.5333C5.2 14.1651 5.49848 13.8667 5.86667 13.8667H7.33333V12.9333C7.33333 12.5651 7.63181 12.2667 8 12.2667Z" fill="#424551"/>
</g>
<defs>
<filter id="filter0_d_2505_193" x="-2" y="0" width="20" height="23.1992" filterUnits="userSpaceOnUse" color-interpolation-filters="sRGB">
<feFlood flood-opacity="0" result="BackgroundImageFix"/>
<feColorMatrix in="SourceAlpha" type="matrix" values="0 0 0 0 0 0 0 0 0 0 0 0 0 0 0 0 0 0 127 0" result="hardAlpha"/>
<feOffset dy="4"/>
<feGaussianBlur stdDeviation="2"/>
<feComposite in2="hardAlpha" operator="out"/>
<feColorMatrix type="matrix" values="0 0 0 0 0 0 0 0 0 0 0 0 0 0 0 0 0 0 0.25 0"/>
<feBlend mode="normal" in2="BackgroundImageFix" result="effect1_dropShadow_2505_193"/>
<feBlend mode="normal" in="SourceGraphic" in2="effect1_dropShadow_2505_193" result="shape"/>
</filter>
</defs>
</svg>
