<svg width="25" height="19" viewBox="0 0 25 19" fill="none" xmlns="http://www.w3.org/2000/svg">
<g filter="url(#filter0_d_2505_138)">
<path fill-rule="evenodd" clip-rule="evenodd" d="M15.7929 0.292893C16.1834 -0.0976311 16.8166 -0.0976311 17.2071 0.292893L21.7071 4.79289C22.0976 5.18342 22.0976 5.81658 21.7071 6.20711L17.2071 10.7071C16.8166 11.0976 16.1834 11.0976 15.7929 10.7071C15.4024 10.3166 15.4024 9.68342 15.7929 9.29289L18.5858 6.5H5C4.44772 6.5 4 6.05228 4 5.5C4 4.94772 4.44772 4.5 5 4.5H18.5858L15.7929 1.70711C15.4024 1.31658 15.4024 0.683417 15.7929 0.292893Z" fill="#FF3F3A"/>
</g>
<defs>
<filter id="filter0_d_2505_138" x="0" y="0" width="26" height="19" filterUnits="userSpaceOnUse" color-interpolation-filters="sRGB">
<feFlood flood-opacity="0" result="BackgroundImageFix"/>
<feColorMatrix in="SourceAlpha" type="matrix" values="0 0 0 0 0 0 0 0 0 0 0 0 0 0 0 0 0 0 127 0" result="hardAlpha"/>
<feOffset dy="4"/>
<feGaussianBlur stdDeviation="2"/>
<feComposite in2="hardAlpha" operator="out"/>
<feColorMatrix type="matrix" values="0 0 0 0 0 0 0 0 0 0 0 0 0 0 0 0 0 0 0.25 0"/>
<feBlend mode="normal" in2="BackgroundImageFix" result="effect1_dropShadow_2505_138"/>
<feBlend mode="normal" in="SourceGraphic" in2="effect1_dropShadow_2505_138" result="shape"/>
</filter>
</defs>
</svg>
